<svg width="30" height="60" viewBox="0 0 30 60" fill="none" xmlns="http://www.w3.org/2000/svg">
<path d="M11.889 31.2436C9.85937 33.364 8.02611 35.6437 6.40919 38.0579C8.95816 36.5513 11.3649 34.8414 13.6029 32.9472C13.6874 41.9648 14.1501 50.9824 14.991 60C15.8479 50.99 16.3106 41.9724 16.379 32.9472C18.6169 34.8415 21.0237 36.5514 23.5727 38.0579C21.9563 35.6434 20.123 33.3637 18.0929 31.2436C22.09 31.098 26.07 30.6729 30 29.9716C26.07 29.2704 22.09 28.8452 18.0929 28.6996C20.1189 26.5778 21.9501 24.2982 23.5667 21.8853C21.0269 23.4175 18.6286 25.148 16.3971 27.0585C16.3126 18.0371 15.8499 9.0176 15.0091 0C14.1561 9.0176 13.6934 18.0371 13.621 27.0585C11.3802 25.1675 8.97375 23.4578 6.42729 21.9478C8.04828 24.3608 9.88343 26.6403 11.9131 28.7621C7.91418 28.9054 3.93213 29.3287 0 30.0284C3.92599 30.707 7.89969 31.1131 11.889 31.2436Z" fill="white"/>
</svg>
